<svg width="64" height="64" viewBox="0 0 64 64" fill="none" xmlns="http://www.w3.org/2000/svg">
<circle cx="32" cy="32" r="32" fill="#35CE8D"/>
<path d="M13.9473 36.0225C14.2891 36.0225 14.5921 35.9837 14.8564 35.9062C15.1253 35.8242 15.3646 35.7194 15.5742 35.5918C15.7839 35.4642 15.9661 35.3206 16.1211 35.1611C16.2806 35.0016 16.4196 34.8444 16.5381 34.6895C16.611 34.7441 16.668 34.8285 16.709 34.9424C16.7546 35.0563 16.7773 35.1725 16.7773 35.291C16.7773 35.487 16.7249 35.6943 16.6201 35.9131C16.5153 36.1273 16.3398 36.3255 16.0938 36.5078C15.8477 36.6901 15.5218 36.8405 15.1162 36.959C14.7106 37.0775 14.2093 37.1367 13.6123 37.1367C12.8011 37.1367 12.0924 37.0137 11.4863 36.7676C10.8802 36.5215 10.3766 36.1729 9.97559 35.7217C9.57454 35.2705 9.27376 34.7282 9.07324 34.0947C8.87272 33.4613 8.77246 32.7594 8.77246 31.9893C8.77246 31.2327 8.875 30.54 9.08008 29.9111C9.28516 29.2822 9.58822 28.7422 9.98926 28.291C10.3949 27.8398 10.8984 27.4889 11.5 27.2383C12.1061 26.9876 12.8057 26.8623 13.5986 26.8623C14.1364 26.8623 14.6035 26.9056 15 26.9922C15.401 27.0742 15.7337 27.1882 15.998 27.334C16.2624 27.4798 16.4606 27.653 16.5928 27.8535C16.7249 28.0495 16.791 28.2614 16.791 28.4893C16.791 28.6624 16.7523 28.8242 16.6748 28.9746C16.6019 29.1204 16.4902 29.248 16.3398 29.3574C16.194 29.4668 16.0117 29.5534 15.793 29.6172C15.5742 29.6764 15.3236 29.7061 15.041 29.7061C15.041 29.4736 15.016 29.2435 14.9658 29.0156C14.9157 28.7832 14.8291 28.5736 14.7061 28.3867C14.5876 28.1999 14.4303 28.0495 14.2344 27.9355C14.0384 27.8171 13.7946 27.7578 13.5029 27.7578C13.0609 27.7578 12.6872 27.8512 12.3818 28.0381C12.0765 28.2249 11.8304 28.4984 11.6436 28.8584C11.4613 29.2184 11.3291 29.6628 11.2471 30.1914C11.165 30.7155 11.124 31.3148 11.124 31.9893C11.124 32.6637 11.1742 33.2539 11.2744 33.7598C11.3747 34.2656 11.5365 34.6872 11.7598 35.0244C11.9831 35.3571 12.2725 35.6077 12.6279 35.7764C12.988 35.9404 13.4277 36.0225 13.9473 36.0225ZM25.2744 33.2197C25.2744 34.5368 24.9645 35.5189 24.3447 36.166C23.7295 36.8132 22.8226 37.1367 21.624 37.1367C21.0635 37.1367 20.5599 37.057 20.1133 36.8975C19.6667 36.7334 19.2861 36.4896 18.9717 36.166C18.6618 35.8424 18.4225 35.4346 18.2539 34.9424C18.0898 34.4502 18.0078 33.876 18.0078 33.2197C18.0078 31.9027 18.3154 30.9229 18.9307 30.2803C19.5505 29.6377 20.4619 29.3164 21.665 29.3164C22.2256 29.3164 22.7269 29.3962 23.1689 29.5557C23.6156 29.7152 23.9938 29.9567 24.3037 30.2803C24.6182 30.6038 24.8574 31.0117 25.0215 31.5039C25.1901 31.9915 25.2744 32.5635 25.2744 33.2197ZM20.1816 33.2197C20.1816 33.7165 20.2067 34.154 20.2568 34.5322C20.3115 34.9105 20.3958 35.2272 20.5098 35.4824C20.6283 35.7376 20.7809 35.9313 20.9678 36.0635C21.1546 36.1911 21.3825 36.2549 21.6514 36.2549C21.9202 36.2549 22.1458 36.1911 22.3281 36.0635C22.515 35.9313 22.6654 35.7376 22.7793 35.4824C22.8978 35.2272 22.9821 34.9105 23.0322 34.5322C23.0824 34.154 23.1074 33.7165 23.1074 33.2197C23.1074 32.7184 23.0801 32.2809 23.0254 31.9072C22.9753 31.529 22.891 31.2145 22.7725 30.9639C22.6585 30.7132 22.5081 30.5264 22.3213 30.4033C22.1344 30.2757 21.9066 30.2119 21.6377 30.2119C21.3688 30.2119 21.141 30.2757 20.9541 30.4033C20.7673 30.5264 20.6169 30.7132 20.5029 30.9639C20.389 31.2145 20.307 31.529 20.2568 31.9072C20.2067 32.2809 20.1816 32.7184 20.1816 33.2197ZM26.2861 39.6182C26.391 39.6182 26.5003 39.6068 26.6143 39.584C26.7327 39.5658 26.8398 39.5247 26.9355 39.4609C27.0358 39.3971 27.1178 39.306 27.1816 39.1875C27.25 39.069 27.2842 38.9095 27.2842 38.709V31.2168C27.2842 31.0026 27.2591 30.8317 27.209 30.7041C27.1634 30.5765 27.0973 30.4785 27.0107 30.4102C26.9287 30.3418 26.8285 30.2962 26.71 30.2734C26.596 30.2507 26.473 30.2393 26.3408 30.2393H26.2451V29.4941H28.9863L29.2393 30.5879H29.3008C29.401 30.4056 29.5173 30.2393 29.6494 30.0889C29.7861 29.9385 29.9411 29.8086 30.1143 29.6992C30.292 29.5898 30.4902 29.5055 30.709 29.4463C30.9277 29.387 31.1715 29.3574 31.4404 29.3574C31.9053 29.3574 32.3154 29.4349 32.6709 29.5898C33.0309 29.7402 33.3317 29.9772 33.5732 30.3008C33.8148 30.6198 33.9971 31.0254 34.1201 31.5176C34.2477 32.0098 34.3115 32.5954 34.3115 33.2744C34.3115 33.9489 34.25 34.5322 34.127 35.0244C34.0039 35.512 33.8216 35.9154 33.5801 36.2344C33.3431 36.5534 33.0492 36.7904 32.6982 36.9453C32.3519 37.0957 31.9508 37.1709 31.4951 37.1709C30.9619 37.1709 30.529 37.0706 30.1963 36.8701C29.8636 36.665 29.597 36.3916 29.3965 36.0498H29.3008C29.319 36.264 29.3372 36.4736 29.3555 36.6787C29.3691 36.8519 29.3805 37.0365 29.3896 37.2324C29.4033 37.4284 29.4102 37.5993 29.4102 37.7451V38.709C29.4102 38.9095 29.4421 39.069 29.5059 39.1875C29.5742 39.306 29.6562 39.3971 29.752 39.4609C29.8522 39.5247 29.9593 39.5658 30.0732 39.584C30.1917 39.6068 30.3011 39.6182 30.4014 39.6182H30.709V40.3633H26.1221V39.6182H26.2861ZM30.8389 36.1318C31.3083 36.1318 31.6432 35.8971 31.8438 35.4277C32.0488 34.9538 32.1514 34.2406 32.1514 33.2881C32.1514 32.3584 32.0488 31.6452 31.8438 31.1484C31.6432 30.6517 31.3128 30.4033 30.8525 30.4033C30.5745 30.4033 30.3421 30.4671 30.1553 30.5947C29.9684 30.7178 29.8203 30.9023 29.7109 31.1484C29.6016 31.39 29.5241 31.6908 29.4785 32.0508C29.4329 32.4062 29.4102 32.8141 29.4102 33.2744C29.4102 33.7575 29.4329 34.179 29.4785 34.5391C29.5241 34.8945 29.6016 35.1908 29.7109 35.4277C29.8203 35.6647 29.9661 35.8424 30.1484 35.9609C30.3307 36.0749 30.5609 36.1318 30.8389 36.1318ZM36.1777 27.2246C36.1777 27.0469 36.2074 26.8942 36.2666 26.7666C36.3304 26.639 36.4147 26.5365 36.5195 26.459C36.6289 26.377 36.7542 26.3177 36.8955 26.2812C37.0413 26.2402 37.1986 26.2197 37.3672 26.2197C37.5267 26.2197 37.6794 26.2402 37.8252 26.2812C37.971 26.3177 38.0986 26.377 38.208 26.459C38.3174 26.5365 38.404 26.639 38.4678 26.7666C38.5361 26.8942 38.5703 27.0469 38.5703 27.2246C38.5703 27.3978 38.5361 27.5482 38.4678 27.6758C38.404 27.8034 38.3174 27.9082 38.208 27.9902C38.0986 28.0723 37.971 28.1338 37.8252 28.1748C37.6794 28.2158 37.5267 28.2363 37.3672 28.2363C37.1986 28.2363 37.0413 28.2158 36.8955 28.1748C36.7542 28.1338 36.6289 28.0723 36.5195 27.9902C36.4147 27.9082 36.3304 27.8034 36.2666 27.6758C36.2074 27.5482 36.1777 27.3978 36.1777 27.2246ZM35.3779 36.2549C35.4827 36.2549 35.5921 36.2458 35.7061 36.2275C35.8245 36.2048 35.9316 36.1615 36.0273 36.0977C36.1276 36.0339 36.2096 35.9427 36.2734 35.8242C36.3418 35.7057 36.376 35.5462 36.376 35.3457V31.0938C36.376 30.9069 36.3418 30.7588 36.2734 30.6494C36.2096 30.5355 36.1276 30.4489 36.0273 30.3896C35.9271 30.3258 35.8177 30.2848 35.6992 30.2666C35.5853 30.2484 35.4782 30.2393 35.3779 30.2393H35.2139V29.4941H38.502V35.3457C38.502 35.5462 38.5339 35.7057 38.5977 35.8242C38.666 35.9427 38.748 36.0339 38.8438 36.0977C38.944 36.1615 39.0534 36.2048 39.1719 36.2275C39.2904 36.2458 39.3997 36.2549 39.5 36.2549H39.6641V37H35.2139V36.2549H35.3779ZM44.0664 30.2256C43.6745 30.2256 43.3623 30.4193 43.1299 30.8066C42.902 31.194 42.7767 31.7614 42.7539 32.5088H45.1738C45.1738 32.1533 45.1533 31.8343 45.1123 31.5518C45.0713 31.2692 45.0052 31.0299 44.9141 30.834C44.8275 30.638 44.7135 30.4876 44.5723 30.3828C44.4355 30.278 44.2669 30.2256 44.0664 30.2256ZM44.1963 37.1367C43.6038 37.1367 43.0798 37.0501 42.624 36.877C42.1729 36.7038 41.7946 36.4531 41.4893 36.125C41.1839 35.7969 40.9538 35.3958 40.7988 34.9219C40.6439 34.4434 40.5664 33.8988 40.5664 33.2881C40.5664 32.6318 40.6439 32.0553 40.7988 31.5586C40.9538 31.0618 41.1794 30.6471 41.4756 30.3145C41.7718 29.9818 42.1341 29.7334 42.5625 29.5693C42.9954 29.4007 43.4876 29.3164 44.0391 29.3164C44.5449 29.3164 45.0007 29.3893 45.4062 29.5352C45.8118 29.6764 46.1559 29.8883 46.4385 30.1709C46.721 30.4535 46.9375 30.8044 47.0879 31.2236C47.2383 31.6429 47.3135 32.1305 47.3135 32.6865V33.4043H42.7266C42.7402 33.8737 42.7904 34.277 42.877 34.6143C42.9681 34.9515 43.0911 35.2295 43.2461 35.4482C43.4056 35.667 43.597 35.8288 43.8203 35.9336C44.0482 36.0384 44.3079 36.0908 44.5996 36.0908C44.8411 36.0908 45.0645 36.0635 45.2695 36.0088C45.4746 35.9495 45.6592 35.8698 45.8232 35.7695C45.9919 35.6647 46.1377 35.5439 46.2607 35.4072C46.3883 35.266 46.4932 35.1156 46.5752 34.9561C46.8258 35.0928 46.9512 35.3206 46.9512 35.6396C46.9512 35.8402 46.8965 36.0316 46.7871 36.2139C46.6777 36.3916 46.5091 36.5488 46.2812 36.6855C46.0534 36.8223 45.7663 36.9316 45.4199 37.0137C45.0781 37.0957 44.6702 37.1367 44.1963 37.1367ZM55.5781 35.2773C55.5781 35.4915 55.61 35.6624 55.6738 35.79C55.7376 35.9176 55.8219 36.0156 55.9268 36.084C56.0361 36.1523 56.1592 36.1979 56.2959 36.2207C56.4372 36.2435 56.5853 36.2549 56.7402 36.2549H56.7949V37H54.0811L53.6914 35.9062H53.5615C53.4567 36.0977 53.3359 36.2686 53.1992 36.4189C53.0671 36.5693 52.9121 36.6992 52.7344 36.8086C52.5612 36.9134 52.3652 36.9932 52.1465 37.0479C51.9277 37.1071 51.6816 37.1367 51.4082 37.1367C50.9525 37.1367 50.5469 37.0615 50.1914 36.9111C49.8359 36.7562 49.5352 36.5215 49.2891 36.207C49.0475 35.888 48.863 35.4847 48.7354 34.9971C48.6123 34.5094 48.5508 33.9307 48.5508 33.2607C48.5508 32.5863 48.6123 32.0029 48.7354 31.5107C48.863 31.014 49.0475 30.6061 49.2891 30.2871C49.5306 29.9635 49.8268 29.7243 50.1777 29.5693C50.5286 29.4098 50.9297 29.3301 51.3809 29.3301C51.6452 29.3301 51.8822 29.3597 52.0918 29.4189C52.306 29.4736 52.4974 29.5511 52.666 29.6514C52.8392 29.7471 52.9919 29.8633 53.124 30C53.2562 30.1367 53.3701 30.2871 53.4658 30.4512H53.5615C53.5433 30.1914 53.5251 29.9476 53.5068 29.7197C53.5023 29.624 53.4954 29.526 53.4863 29.4258C53.4818 29.3255 53.4749 29.2321 53.4658 29.1455C53.4613 29.0544 53.4567 28.9746 53.4521 28.9062C53.4521 28.8379 53.4521 28.7832 53.4521 28.7422V27.9697C53.4521 27.7783 53.4202 27.6257 53.3564 27.5117C53.2972 27.3932 53.2152 27.3044 53.1104 27.2451C53.0101 27.1859 52.8916 27.1471 52.7549 27.1289C52.6182 27.1107 52.4723 27.1016 52.3174 27.1016H52.208V26.3633H55.5781V35.2773ZM52.0098 36.0908C52.2878 36.0908 52.5179 36.0339 52.7002 35.9199C52.887 35.8014 53.0352 35.6237 53.1445 35.3867C53.2585 35.1497 53.3382 34.8535 53.3838 34.498C53.4294 34.138 53.4521 33.7165 53.4521 33.2334C53.4521 32.7731 53.4294 32.3652 53.3838 32.0098C53.3382 31.6497 53.2585 31.349 53.1445 31.1074C53.0352 30.8613 52.887 30.6768 52.7002 30.5537C52.5179 30.4261 52.2878 30.3623 52.0098 30.3623C51.7773 30.3623 51.5768 30.4261 51.4082 30.5537C51.2441 30.6768 51.1097 30.8613 51.0049 31.1074C50.9046 31.3535 50.8294 31.6566 50.7793 32.0166C50.7337 32.3721 50.7109 32.7822 50.7109 33.2471C50.7109 34.1995 50.8089 34.9128 51.0049 35.3867C51.2054 35.8561 51.5404 36.0908 52.0098 36.0908Z" fill="#0A1A5F"/>
</svg>
