<svg width="64" height="64" viewBox="0 0 64 64" fill="none" xmlns="http://www.w3.org/2000/svg">
<circle cx="32" cy="32" r="32" fill="#FF9495"/>
<path d="M21.0498 36.0225C21.3916 36.0225 21.6947 35.9837 21.959 35.9062C22.2279 35.8242 22.4671 35.7194 22.6768 35.5918C22.8864 35.4642 23.0687 35.3206 23.2236 35.1611C23.3831 35.0016 23.5221 34.8444 23.6406 34.6895C23.7135 34.7441 23.7705 34.8285 23.8115 34.9424C23.8571 35.0563 23.8799 35.1725 23.8799 35.291C23.8799 35.487 23.8275 35.6943 23.7227 35.9131C23.6178 36.1273 23.4424 36.3255 23.1963 36.5078C22.9502 36.6901 22.6243 36.8405 22.2188 36.959C21.8132 37.0775 21.3118 37.1367 20.7148 37.1367C19.9036 37.1367 19.195 37.0137 18.5889 36.7676C17.9827 36.5215 17.4792 36.1729 17.0781 35.7217C16.6771 35.2705 16.3763 34.7282 16.1758 34.0947C15.9753 33.4613 15.875 32.7594 15.875 31.9893C15.875 31.2327 15.9775 30.54 16.1826 29.9111C16.3877 29.2822 16.6908 28.7422 17.0918 28.291C17.4974 27.8398 18.001 27.4889 18.6025 27.2383C19.2087 26.9876 19.9082 26.8623 20.7012 26.8623C21.2389 26.8623 21.7061 26.9056 22.1025 26.9922C22.5036 27.0742 22.8363 27.1882 23.1006 27.334C23.3649 27.4798 23.5632 27.653 23.6953 27.8535C23.8275 28.0495 23.8936 28.2614 23.8936 28.4893C23.8936 28.6624 23.8548 28.8242 23.7773 28.9746C23.7044 29.1204 23.5928 29.248 23.4424 29.3574C23.2965 29.4668 23.1143 29.5534 22.8955 29.6172C22.6768 29.6764 22.4261 29.7061 22.1436 29.7061C22.1436 29.4736 22.1185 29.2435 22.0684 29.0156C22.0182 28.7832 21.9316 28.5736 21.8086 28.3867C21.6901 28.1999 21.5329 28.0495 21.3369 27.9355C21.141 27.8171 20.8971 27.7578 20.6055 27.7578C20.1634 27.7578 19.7897 27.8512 19.4844 28.0381C19.179 28.2249 18.9329 28.4984 18.7461 28.8584C18.5638 29.2184 18.4316 29.6628 18.3496 30.1914C18.2676 30.7155 18.2266 31.3148 18.2266 31.9893C18.2266 32.6637 18.2767 33.2539 18.377 33.7598C18.4772 34.2656 18.639 34.6872 18.8623 35.0244C19.0856 35.3571 19.375 35.6077 19.7305 35.7764C20.0905 35.9404 20.5303 36.0225 21.0498 36.0225ZM32.377 33.2197C32.377 34.5368 32.0671 35.5189 31.4473 36.166C30.832 36.8132 29.9251 37.1367 28.7266 37.1367C28.166 37.1367 27.6624 37.057 27.2158 36.8975C26.7692 36.7334 26.3887 36.4896 26.0742 36.166C25.7643 35.8424 25.5251 35.4346 25.3564 34.9424C25.1924 34.4502 25.1104 33.876 25.1104 33.2197C25.1104 31.9027 25.418 30.9229 26.0332 30.2803C26.653 29.6377 27.5645 29.3164 28.7676 29.3164C29.3281 29.3164 29.8294 29.3962 30.2715 29.5557C30.7181 29.7152 31.0964 29.9567 31.4062 30.2803C31.7207 30.6038 31.96 31.0117 32.124 31.5039C32.2926 31.9915 32.377 32.5635 32.377 33.2197ZM27.2842 33.2197C27.2842 33.7165 27.3092 34.154 27.3594 34.5322C27.4141 34.9105 27.4984 35.2272 27.6123 35.4824C27.7308 35.7376 27.8835 35.9313 28.0703 36.0635C28.2572 36.1911 28.485 36.2549 28.7539 36.2549C29.0228 36.2549 29.2484 36.1911 29.4307 36.0635C29.6175 35.9313 29.7679 35.7376 29.8818 35.4824C30.0003 35.2272 30.0846 34.9105 30.1348 34.5322C30.1849 34.154 30.21 33.7165 30.21 33.2197C30.21 32.7184 30.1826 32.2809 30.1279 31.9072C30.0778 31.529 29.9935 31.2145 29.875 30.9639C29.7611 30.7132 29.6107 30.5264 29.4238 30.4033C29.237 30.2757 29.0091 30.2119 28.7402 30.2119C28.4714 30.2119 28.2435 30.2757 28.0566 30.4033C27.8698 30.5264 27.7194 30.7132 27.6055 30.9639C27.4915 31.2145 27.4095 31.529 27.3594 31.9072C27.3092 32.2809 27.2842 32.7184 27.2842 33.2197ZM33.3887 39.6182C33.4935 39.6182 33.6029 39.6068 33.7168 39.584C33.8353 39.5658 33.9424 39.5247 34.0381 39.4609C34.1383 39.3971 34.2204 39.306 34.2842 39.1875C34.3525 39.069 34.3867 38.9095 34.3867 38.709V31.2168C34.3867 31.0026 34.3617 30.8317 34.3115 30.7041C34.266 30.5765 34.1999 30.4785 34.1133 30.4102C34.0312 30.3418 33.931 30.2962 33.8125 30.2734C33.6986 30.2507 33.5755 30.2393 33.4434 30.2393H33.3477V29.4941H36.0889L36.3418 30.5879H36.4033C36.5036 30.4056 36.6198 30.2393 36.752 30.0889C36.8887 29.9385 37.0436 29.8086 37.2168 29.6992C37.3945 29.5898 37.5928 29.5055 37.8115 29.4463C38.0303 29.387 38.2741 29.3574 38.543 29.3574C39.0078 29.3574 39.418 29.4349 39.7734 29.5898C40.1335 29.7402 40.4342 29.9772 40.6758 30.3008C40.9173 30.6198 41.0996 31.0254 41.2227 31.5176C41.3503 32.0098 41.4141 32.5954 41.4141 33.2744C41.4141 33.9489 41.3525 34.5322 41.2295 35.0244C41.1064 35.512 40.9242 35.9154 40.6826 36.2344C40.4456 36.5534 40.1517 36.7904 39.8008 36.9453C39.4544 37.0957 39.0534 37.1709 38.5977 37.1709C38.0645 37.1709 37.6315 37.0706 37.2988 36.8701C36.9661 36.665 36.6995 36.3916 36.499 36.0498H36.4033C36.4215 36.264 36.4398 36.4736 36.458 36.6787C36.4717 36.8519 36.4831 37.0365 36.4922 37.2324C36.5059 37.4284 36.5127 37.5993 36.5127 37.7451V38.709C36.5127 38.9095 36.5446 39.069 36.6084 39.1875C36.6768 39.306 36.7588 39.3971 36.8545 39.4609C36.9548 39.5247 37.0618 39.5658 37.1758 39.584C37.2943 39.6068 37.4036 39.6182 37.5039 39.6182H37.8115V40.3633H33.2246V39.6182H33.3887ZM37.9414 36.1318C38.4108 36.1318 38.7458 35.8971 38.9463 35.4277C39.1514 34.9538 39.2539 34.2406 39.2539 33.2881C39.2539 32.3584 39.1514 31.6452 38.9463 31.1484C38.7458 30.6517 38.4154 30.4033 37.9551 30.4033C37.6771 30.4033 37.4447 30.4671 37.2578 30.5947C37.071 30.7178 36.9229 30.9023 36.8135 31.1484C36.7041 31.39 36.6266 31.6908 36.5811 32.0508C36.5355 32.4062 36.5127 32.8141 36.5127 33.2744C36.5127 33.7575 36.5355 34.179 36.5811 34.5391C36.6266 34.8945 36.7041 35.1908 36.8135 35.4277C36.9229 35.6647 37.0687 35.8424 37.251 35.9609C37.4333 36.0749 37.6634 36.1318 37.9414 36.1318ZM49.8975 29.4941V30.2393C49.7562 30.2393 49.6309 30.2552 49.5215 30.2871C49.4167 30.319 49.321 30.376 49.2344 30.458C49.1478 30.5355 49.068 30.6403 48.9951 30.7725C48.9222 30.9001 48.8493 31.0618 48.7764 31.2578C48.6123 31.7227 48.4414 32.1966 48.2637 32.6797C48.0859 33.1628 47.9059 33.6481 47.7236 34.1357C47.5459 34.6188 47.3659 35.1019 47.1836 35.585C47.0059 36.0635 46.8327 36.5352 46.6641 37C46.5 37.4512 46.3451 37.8477 46.1992 38.1895C46.0534 38.5312 45.8984 38.8275 45.7344 39.0781C45.5749 39.3288 45.3971 39.5361 45.2012 39.7002C45.0052 39.8643 44.7773 39.9941 44.5176 40.0898C44.2578 40.1901 43.9548 40.2607 43.6084 40.3018C43.2666 40.3428 42.8656 40.3633 42.4053 40.3633H42.166V39.5498C42.6536 39.5498 43.0684 39.4906 43.4102 39.3721C43.752 39.2536 44.0413 39.085 44.2783 38.8662C44.5153 38.6475 44.709 38.3854 44.8594 38.0801C45.0143 37.7747 45.1488 37.4375 45.2627 37.0684L42.7402 30.9092C42.6855 30.777 42.624 30.6722 42.5557 30.5947C42.4873 30.5173 42.4144 30.458 42.3369 30.417C42.2594 30.376 42.1751 30.3509 42.084 30.3418C41.9928 30.3281 41.8949 30.3213 41.79 30.3213V29.4941H45.7822V30.2393C45.5088 30.2393 45.2923 30.2757 45.1328 30.3486C44.9779 30.417 44.9004 30.5537 44.9004 30.7588C44.9004 30.8363 44.9163 30.9297 44.9482 31.0391C44.9801 31.1439 45.0098 31.2305 45.0371 31.2988C45.1191 31.4948 45.2035 31.709 45.29 31.9414C45.3812 32.1693 45.4678 32.3994 45.5498 32.6318C45.6364 32.8597 45.7184 33.0807 45.7959 33.2949C45.8734 33.5091 45.9417 33.6982 46.001 33.8623C46.0693 34.04 46.1263 34.2018 46.1719 34.3477C46.2174 34.4889 46.2539 34.6188 46.2812 34.7373C46.3132 34.8512 46.3382 34.9583 46.3564 35.0586C46.3747 35.1543 46.3883 35.25 46.3975 35.3457C46.4066 35.25 46.4248 35.1452 46.4521 35.0312C46.4795 34.9128 46.5091 34.8011 46.541 34.6963C46.5729 34.5869 46.6048 34.4912 46.6367 34.4092C46.6686 34.3226 46.6914 34.2611 46.7051 34.2246L47.6279 31.4834C47.6462 31.4378 47.6621 31.3854 47.6758 31.3262C47.694 31.2624 47.71 31.1986 47.7236 31.1348C47.7373 31.071 47.7464 31.0094 47.751 30.9502C47.7601 30.891 47.7646 30.8408 47.7646 30.7998C47.7646 30.5856 47.6758 30.4398 47.498 30.3623C47.3203 30.2803 47.0697 30.2393 46.7461 30.2393V29.4941H49.8975Z" fill="#0A1A5F"/>
</svg>
