<svg width="72" height="72" viewBox="0 0 72 72" fill="none" xmlns="http://www.w3.org/2000/svg">
<circle cx="36" cy="36" r="36" fill="#FF9495"/>
<path d="M21.7783 40.7432C22.2178 40.7432 22.6074 40.6934 22.9473 40.5938C23.293 40.4883 23.6006 40.3535 23.8701 40.1895C24.1396 40.0254 24.374 39.8408 24.5732 39.6357C24.7783 39.4307 24.957 39.2285 25.1094 39.0293C25.2031 39.0996 25.2764 39.208 25.3291 39.3545C25.3877 39.501 25.417 39.6504 25.417 39.8027C25.417 40.0547 25.3496 40.3213 25.2148 40.6025C25.0801 40.8779 24.8545 41.1328 24.5381 41.3672C24.2217 41.6016 23.8027 41.7949 23.2812 41.9473C22.7598 42.0996 22.1152 42.1758 21.3477 42.1758C20.3047 42.1758 19.3936 42.0176 18.6143 41.7012C17.835 41.3848 17.1875 40.9365 16.6719 40.3564C16.1562 39.7764 15.7695 39.0791 15.5117 38.2646C15.2539 37.4502 15.125 36.5479 15.125 35.5576C15.125 34.585 15.2568 33.6943 15.5205 32.8857C15.7842 32.0771 16.1738 31.3828 16.6895 30.8027C17.2109 30.2227 17.8584 29.7715 18.6318 29.4492C19.4111 29.127 20.3105 28.9658 21.3301 28.9658C22.0215 28.9658 22.6221 29.0215 23.1318 29.1328C23.6475 29.2383 24.0752 29.3848 24.415 29.5723C24.7549 29.7598 25.0098 29.9824 25.1797 30.2402C25.3496 30.4922 25.4346 30.7646 25.4346 31.0576C25.4346 31.2803 25.3848 31.4883 25.2852 31.6816C25.1914 31.8691 25.0479 32.0332 24.8545 32.1738C24.667 32.3145 24.4326 32.4258 24.1514 32.5078C23.8701 32.584 23.5479 32.6221 23.1846 32.6221C23.1846 32.3232 23.1523 32.0273 23.0879 31.7344C23.0234 31.4355 22.9121 31.166 22.7539 30.9258C22.6016 30.6855 22.3994 30.4922 22.1475 30.3457C21.8955 30.1934 21.582 30.1172 21.207 30.1172C20.6387 30.1172 20.1582 30.2373 19.7656 30.4775C19.373 30.7178 19.0566 31.0693 18.8164 31.5322C18.582 31.9951 18.4121 32.5664 18.3066 33.2461C18.2012 33.9199 18.1484 34.6904 18.1484 35.5576C18.1484 36.4248 18.2129 37.1836 18.3418 37.834C18.4707 38.4844 18.6787 39.0264 18.9658 39.46C19.2529 39.8877 19.625 40.21 20.082 40.4268C20.5449 40.6377 21.1104 40.7432 21.7783 40.7432ZM36.3418 37.1396C36.3418 38.833 35.9434 40.0957 35.1465 40.9277C34.3555 41.7598 33.1895 42.1758 31.6484 42.1758C30.9277 42.1758 30.2803 42.0732 29.7061 41.8682C29.1318 41.6572 28.6426 41.3438 28.2383 40.9277C27.8398 40.5117 27.5322 39.9873 27.3154 39.3545C27.1045 38.7217 26.999 37.9834 26.999 37.1396C26.999 35.4463 27.3945 34.1865 28.1855 33.3604C28.9824 32.5342 30.1543 32.1211 31.7012 32.1211C32.4219 32.1211 33.0664 32.2236 33.6348 32.4287C34.209 32.6338 34.6953 32.9443 35.0938 33.3604C35.498 33.7764 35.8057 34.3008 36.0166 34.9336C36.2334 35.5605 36.3418 36.2959 36.3418 37.1396ZM29.7939 37.1396C29.7939 37.7783 29.8262 38.3408 29.8906 38.8271C29.9609 39.3135 30.0693 39.7207 30.2158 40.0488C30.3682 40.377 30.5645 40.626 30.8047 40.7959C31.0449 40.96 31.3379 41.042 31.6836 41.042C32.0293 41.042 32.3193 40.96 32.5537 40.7959C32.7939 40.626 32.9873 40.377 33.1338 40.0488C33.2861 39.7207 33.3945 39.3135 33.459 38.8271C33.5234 38.3408 33.5557 37.7783 33.5557 37.1396C33.5557 36.4951 33.5205 35.9326 33.4502 35.4521C33.3857 34.9658 33.2773 34.5615 33.125 34.2393C32.9785 33.917 32.7852 33.6768 32.5449 33.5186C32.3047 33.3545 32.0117 33.2725 31.666 33.2725C31.3203 33.2725 31.0273 33.3545 30.7871 33.5186C30.5469 33.6768 30.3535 33.917 30.207 34.2393C30.0605 34.5615 29.9551 34.9658 29.8906 35.4521C29.8262 35.9326 29.7939 36.4951 29.7939 37.1396ZM37.6426 45.3662C37.7773 45.3662 37.918 45.3516 38.0645 45.3223C38.2168 45.2988 38.3545 45.2461 38.4775 45.1641C38.6064 45.082 38.7119 44.9648 38.7939 44.8125C38.8818 44.6602 38.9258 44.4551 38.9258 44.1973V34.5645C38.9258 34.2891 38.8936 34.0693 38.8291 33.9053C38.7705 33.7412 38.6855 33.6152 38.5742 33.5273C38.4688 33.4395 38.3398 33.3809 38.1875 33.3516C38.041 33.3223 37.8828 33.3076 37.7129 33.3076H37.5898V32.3496H41.1143L41.4395 33.7559H41.5186C41.6475 33.5215 41.7969 33.3076 41.9668 33.1143C42.1426 32.9209 42.3418 32.7539 42.5645 32.6133C42.793 32.4727 43.0479 32.3643 43.3291 32.2881C43.6104 32.2119 43.9238 32.1738 44.2695 32.1738C44.8672 32.1738 45.3945 32.2734 45.8516 32.4727C46.3145 32.666 46.7012 32.9707 47.0117 33.3867C47.3223 33.7969 47.5566 34.3184 47.7148 34.9512C47.8789 35.584 47.9609 36.3369 47.9609 37.21C47.9609 38.0771 47.8818 38.8271 47.7236 39.46C47.5654 40.0869 47.3311 40.6055 47.0205 41.0156C46.7158 41.4258 46.3379 41.7305 45.8867 41.9297C45.4414 42.123 44.9258 42.2197 44.3398 42.2197C43.6543 42.2197 43.0977 42.0908 42.6699 41.833C42.2422 41.5693 41.8994 41.2178 41.6416 40.7783H41.5186C41.542 41.0537 41.5654 41.3232 41.5889 41.5869C41.6064 41.8096 41.6211 42.0469 41.6328 42.2988C41.6504 42.5508 41.6592 42.7705 41.6592 42.958V44.1973C41.6592 44.4551 41.7002 44.6602 41.7822 44.8125C41.8701 44.9648 41.9756 45.082 42.0986 45.1641C42.2275 45.2461 42.3652 45.2988 42.5117 45.3223C42.6641 45.3516 42.8047 45.3662 42.9336 45.3662H43.3291V46.3242H37.4316V45.3662H37.6426ZM43.4961 40.8838C44.0996 40.8838 44.5303 40.582 44.7881 39.9785C45.0518 39.3691 45.1836 38.4521 45.1836 37.2275C45.1836 36.0322 45.0518 35.1152 44.7881 34.4766C44.5303 33.8379 44.1055 33.5186 43.5137 33.5186C43.1562 33.5186 42.8574 33.6006 42.6172 33.7646C42.377 33.9229 42.1865 34.1602 42.0459 34.4766C41.9053 34.7871 41.8057 35.1738 41.7471 35.6367C41.6885 36.0938 41.6592 36.6182 41.6592 37.21C41.6592 37.8311 41.6885 38.373 41.7471 38.8359C41.8057 39.293 41.9053 39.6738 42.0459 39.9785C42.1865 40.2832 42.374 40.5117 42.6084 40.6641C42.8428 40.8105 43.1387 40.8838 43.4961 40.8838ZM58.8682 32.3496V33.3076C58.6865 33.3076 58.5254 33.3281 58.3848 33.3691C58.25 33.4102 58.127 33.4834 58.0156 33.5889C57.9043 33.6885 57.8018 33.8232 57.708 33.9932C57.6143 34.1572 57.5205 34.3652 57.4268 34.6172C57.2158 35.2148 56.9961 35.8242 56.7676 36.4453C56.5391 37.0664 56.3076 37.6904 56.0732 38.3174C55.8447 38.9385 55.6133 39.5596 55.3789 40.1807C55.1504 40.7959 54.9277 41.4023 54.7109 42C54.5 42.5801 54.3008 43.0898 54.1133 43.5293C53.9258 43.9688 53.7266 44.3496 53.5156 44.6719C53.3105 44.9941 53.082 45.2607 52.8301 45.4717C52.5781 45.6826 52.2852 45.8496 51.9512 45.9727C51.6172 46.1016 51.2275 46.1924 50.7822 46.2451C50.3428 46.2979 49.8271 46.3242 49.2354 46.3242H48.9277V45.2783C49.5547 45.2783 50.0879 45.2021 50.5273 45.0498C50.9668 44.8975 51.3389 44.6807 51.6436 44.3994C51.9482 44.1182 52.1973 43.7812 52.3906 43.3887C52.5898 42.9961 52.7627 42.5625 52.9092 42.0879L49.666 34.1689C49.5957 33.999 49.5166 33.8643 49.4287 33.7646C49.3408 33.665 49.2471 33.5889 49.1475 33.5361C49.0479 33.4834 48.9395 33.4512 48.8223 33.4395C48.7051 33.4219 48.5791 33.4131 48.4443 33.4131V32.3496H53.5771V33.3076C53.2256 33.3076 52.9473 33.3545 52.7422 33.4482C52.543 33.5361 52.4434 33.7119 52.4434 33.9756C52.4434 34.0752 52.4639 34.1953 52.5049 34.3359C52.5459 34.4707 52.584 34.582 52.6191 34.6699C52.7246 34.9219 52.833 35.1973 52.9443 35.4961C53.0615 35.7891 53.1729 36.085 53.2783 36.3838C53.3896 36.6768 53.4951 36.9609 53.5947 37.2363C53.6943 37.5117 53.7822 37.7549 53.8584 37.9658C53.9463 38.1943 54.0195 38.4023 54.0781 38.5898C54.1367 38.7715 54.1836 38.9385 54.2188 39.0908C54.2598 39.2373 54.292 39.375 54.3154 39.5039C54.3389 39.627 54.3564 39.75 54.3682 39.873C54.3799 39.75 54.4033 39.6152 54.4385 39.4688C54.4736 39.3164 54.5117 39.1729 54.5527 39.0381C54.5938 38.8975 54.6348 38.7744 54.6758 38.6689C54.7168 38.5576 54.7461 38.4785 54.7637 38.4316L55.9502 34.9072C55.9736 34.8486 55.9941 34.7812 56.0117 34.7051C56.0352 34.623 56.0557 34.541 56.0732 34.459C56.0908 34.377 56.1025 34.2979 56.1084 34.2217C56.1201 34.1455 56.126 34.0811 56.126 34.0283C56.126 33.7529 56.0117 33.5654 55.7832 33.4658C55.5547 33.3604 55.2324 33.3076 54.8164 33.3076V32.3496H58.8682Z" fill="#0A1A5F"/>
</svg>
