<?xml version="1.0" standalone="no"?>
<!DOCTYPE svg PUBLIC "-//W3C//DTD SVG 20010904//EN"
 "http://www.w3.org/TR/2001/REC-SVG-20010904/DTD/svg10.dtd">
<svg version="1.0" xmlns="http://www.w3.org/2000/svg"
 width="512.000000pt" height="512.000000pt" viewBox="0 0 512.000000 512.000000"
 preserveAspectRatio="xMidYMid meet">
<metadata>
Created by potrace 1.11, written by Peter Selinger 2001-2013
</metadata>
<g transform="translate(0.000000,512.000000) scale(0.100000,-0.100000)"
fill="#000000" stroke="none">
<path d="M70 5102 c-20 -10 -42 -32 -52 -52 -17 -33 -18 -173 -18 -2490 0
-2317 1 -2457 18 -2490 10 -20 32 -42 52 -52 33 -17 173 -18 2490 -18 2317 0
2457 1 2490 18 20 10 42 32 52 52 17 33 18 173 18 2490 0 2317 -1 2457 -18
2490 -10 20 -32 42 -52 52 -33 17 -173 18 -2490 18 -2317 0 -2457 -1 -2490
-18z"/>
</g>
</svg>
